<?xml version="1.0" standalone="no"?>
<!DOCTYPE svg PUBLIC "-//W3C//DTD SVG 20010904//EN"
 "http://www.w3.org/TR/2001/REC-SVG-20010904/DTD/svg10.dtd">
<svg version="1.0" xmlns="http://www.w3.org/2000/svg"
 width="250.000000pt" height="250.000000pt" viewBox="0 0 250.000000 250.000000"
 preserveAspectRatio="xMidYMid meet">
<metadata>
Created by potrace 1.11, written by Peter Selinger 2001-2013
</metadata>
<g transform="translate(0.000000,250.000000) scale(0.100000,-0.100000)"
fill="#000000" stroke="none">
<path d="M0 1498 l0 -1003 305 305 c168 168 305 298 305 290 0 -8 -137 -152
-305 -320 l-305 -306 2 -213 3 -213 303 297 c166 163 302 290 302 281 0 -9 6
-16 12 -16 7 0 -122 -135 -287 -300 l-300 -300 235 0 235 0 300 300 c165 165
307 300 315 300 8 0 -120 -135 -285 -300 l-300 -300 983 0 982 0 0 982 0 983
-300 -300 c-165 -165 -300 -293 -300 -285 0 8 135 150 300 315 l300 300 0 235
0 235 -300 -300 c-165 -165 -300 -294 -300 -287 0 6 -8 12 -17 12 -11 0 107
125 287 305 l305 305 -220 0 -220 0 -305 -305 c-168 -168 -312 -305 -320 -305
-8 0 122 137 290 305 l305 305 -1003 0 -1002 0 0 -1002z"/>
</g>
</svg>
